<?xml version="1.0" encoding="utf-8"?>
<!-- Generator: Adobe Illustrator 17.1.0, SVG Export Plug-In . SVG Version: 6.00 Build 0)  -->
<!DOCTYPE svg PUBLIC "-//W3C//DTD SVG 1.1//EN" "http://www.w3.org/Graphics/SVG/1.1/DTD/svg11.dtd">
<svg version="1.1" id="Layer_1" xmlns="http://www.w3.org/2000/svg" xmlns:xlink="http://www.w3.org/1999/xlink" x="0px" y="0px"
	 viewBox="97.2 -18 384.5 675" enable-background="new 97.2 -18 384.5 675" xml:space="preserve">
<title>ic_back</title>
<desc>Created with Sketch.</desc>
<path fill="#0075e3" d="M443.9,548.3L215,319.5L443.9,90.7c14.8-14.8,14.9-38.9,0.1-53.6c-7.1-7.1-16.6-11.1-26.7-11.1
	c-10.2,0-19.7,4-27,11.2L134.9,292.6l-0.1,0.1c-7.1,7.2-11.1,16.6-11.1,26.7c0,10.1,4,19.6,11.1,26.8l255.5,255.5
	c7.2,7.2,16.8,11.2,26.9,11.2c0,0,0,0,0,0c10.1,0,19.6-3.9,26.7-11c7.2-7.2,11.1-16.7,11.1-26.9C455,565,451,555.5,443.9,548.3z"/>
</svg>
